<svg width="20" height="22" viewBox="0 0 20 22" fill="none" xmlns="http://www.w3.org/2000/svg">
<path d="M11.9836 19.25C12.3977 18.8846 13.0303 18.9239 13.3957 19.3379C13.7612 19.7519 13.7219 20.3845 13.3079 20.75C12.4271 21.5274 11.2675 21.9999 10.0002 22C8.81194 22 7.71841 21.5843 6.86059 20.8916L6.69262 20.75L6.61937 20.6777C6.27536 20.3057 6.26216 19.726 6.60473 19.3379C6.97019 18.9242 7.6019 18.8848 8.01586 19.25C8.54531 19.7173 9.23871 20 10.0002 20C10.7616 19.9999 11.4542 19.7172 11.9836 19.25ZM15.0002 7C15.0002 5.67397 14.473 4.40251 13.5354 3.46484C12.5978 2.52722 11.3262 2.00006 10.0002 2C8.67415 2 7.40178 2.52716 6.4641 3.46484C5.52665 4.40249 5.00023 5.67409 5.00023 7C5.00023 10.2677 4.17271 12.5681 3.19848 14.1338C2.986 14.4753 2.80929 14.7608 2.6643 14.998C2.8706 14.9992 3.11057 15 3.38891 15H16.6116C16.8895 15 17.1291 14.9992 17.3352 14.998C17.1902 14.7609 17.0135 14.4752 16.801 14.1338C15.8268 12.5681 15.0002 10.2676 15.0002 7ZM17.0002 7C17.0002 9.91265 17.7319 11.8439 18.4993 13.0771C18.8622 13.6604 19.1485 14.121 19.3411 14.4551C19.4364 14.6206 19.5238 14.7802 19.5881 14.9219C19.6202 14.9924 19.6558 15.0789 19.6838 15.1729C19.7071 15.2511 19.7522 15.4186 19.7356 15.6221C19.7244 15.7589 19.6959 15.9929 19.5618 16.2344C19.4276 16.4757 19.2442 16.6233 19.134 16.7051C18.8802 16.8933 18.588 16.9337 18.4963 16.9473C18.349 16.9691 18.1815 16.9807 18.0129 16.9873C17.673 17.0006 17.2001 17 16.6116 17H3.38891C2.80022 17 2.32756 17.0006 1.98754 16.9873C1.81878 16.9807 1.65155 16.9691 1.50414 16.9473C1.41297 16.9338 1.1206 16.8934 0.866444 16.7051C0.756203 16.6233 0.571885 16.4759 0.437734 16.2344C0.303588 15.9929 0.276071 15.7589 0.264882 15.6221C0.248276 15.4186 0.292364 15.2511 0.315663 15.1729C0.343716 15.0788 0.380275 14.9925 0.412343 14.9219C0.476658 14.7802 0.563103 14.6205 0.658437 14.4551C0.850932 14.1211 1.13739 13.6603 1.50023 13.0771C2.21961 11.9211 2.90815 10.1516 2.99144 7.53516L3.00023 7C3.00023 5.14348 3.73728 3.36256 5.05004 2.0498C6.36278 0.73712 8.14377 0 10.0002 0C11.8565 5.95969e-05 13.6368 0.737338 14.9495 2.0498C16.2622 3.36256 17.0002 5.14349 17.0002 7Z" fill="#212529"/>
</svg>
