<svg width="32" height="32" viewBox="0 0 32 32" fill="none" xmlns="http://www.w3.org/2000/svg">
<rect width="32" height="32" rx="16" fill="#E0E0E0"/>
<path d="M9.448 19.71C8.43067 19.71 7.6 19.444 6.956 18.912C6.32133 18.3707 6.004 17.6753 6.004 16.826V15.44H7.67V16.812C7.67 17.2227 7.83333 17.554 8.16 17.806C8.48667 18.058 8.90667 18.184 9.42 18.184C9.924 18.184 10.3347 18.044 10.652 17.764C10.9693 17.484 11.128 17.1247 11.128 16.686V9.7H12.808V16.714C12.808 17.6007 12.4953 18.324 11.87 18.884C11.2447 19.4347 10.4373 19.71 9.448 19.71ZM16.4461 19.5H14.7661V9.7H16.8381L19.9041 17.484L22.9561 9.7H25.0281V19.5H23.3481V12.598L20.6321 19.5H19.1621L16.4461 12.612V19.5Z" fill="black"/>
</svg>
