<svg width="24" height="24" viewBox="0 0 24 24" fill="none" xmlns="http://www.w3.org/2000/svg">
<path d="M20 16.2002V7.79981C20 6.94342 19.9997 6.36117 19.9629 5.91113C19.936 5.58253 19.8924 5.37418 19.8389 5.22461L19.7822 5.0918C19.6145 4.76256 19.3592 4.48707 19.0459 4.29492L18.9082 4.21778C18.7518 4.13809 18.5273 4.07293 18.0889 4.03711C17.6388 4.00035 17.0566 4 16.2002 4H15C14.4477 4 14 3.55229 14 3C14 2.44772 14.4477 2 15 2H16.2002C17.0237 2 17.7016 1.99898 18.252 2.04395C18.814 2.08988 19.3311 2.18827 19.8164 2.43555L20.0918 2.58985C20.7183 2.97414 21.2289 3.52512 21.5645 4.1836L21.6504 4.36719C21.8356 4.79892 21.9159 5.2562 21.9561 5.74805C22.001 6.29843 22 6.97632 22 7.79981V16.2002C22 17.0237 22.001 17.7016 21.9561 18.252C21.9159 18.7438 21.8356 19.2011 21.6504 19.6328L21.5645 19.8164C21.181 20.5689 20.5689 21.181 19.8164 21.5645C19.3311 21.8117 18.814 21.9101 18.252 21.9561C17.7016 22.001 17.0237 22 16.2002 22H15C14.4477 22 14 21.5523 14 21C14 20.4477 14.4477 20 15 20H16.2002C17.0566 20 17.6388 19.9997 18.0889 19.9629C18.5273 19.9271 18.7518 19.8619 18.9082 19.7822C19.2845 19.5905 19.5905 19.2845 19.7822 18.9082L19.8389 18.7754C19.8924 18.6258 19.936 18.4175 19.9629 18.0889C19.9997 17.6388 20 17.0566 20 16.2002ZM9.29297 6.29297C9.65908 5.92685 10.2381 5.90426 10.6309 6.22461L10.707 6.29297L15.707 11.293C16.0976 11.6835 16.0976 12.3165 15.707 12.707L10.707 17.707C10.3165 18.0976 9.68349 18.0976 9.29297 17.707C8.90244 17.3165 8.90244 16.6835 9.29297 16.293L12.5859 13H3C2.44772 13 2 12.5523 2 12C2 11.4477 2.44772 11 3 11H12.5859L9.29297 7.70703L9.22461 7.63086C8.90426 7.23809 8.92685 6.65909 9.29297 6.29297Z" fill="#A10303"/>
</svg>
