<svg width="168" height="36" viewBox="0 0 168 36" fill="none" xmlns="http://www.w3.org/2000/svg">
<path d="M36.8536 22.2264L41.7696 22.2636C43.7307 22.2636 45.2854 21.685 46.417 20.5312C47.1423 19.8139 47.7937 18.8631 48.3512 17.6822C48.6567 17.1442 48.9119 16.6671 49.1268 16.2441H45.1678C45.2048 16.3084 45.2317 16.3727 45.2585 16.4505V16.4878C45.2585 16.7821 44.9664 17.3472 44.3922 18.183C44.0597 18.7345 43.1195 19.0187 41.5514 19.0187H38.6367L40.1511 16.2475H36.6018L31.4541 25.522H35.0202C35.1881 25.319 35.7993 24.2126 36.8536 22.2264Z" fill="#212529"/>
<path d="M38.6996 12.4209L37.1348 15.2428H49.5759C49.7404 14.8334 49.8311 14.4984 49.8176 14.2819C49.8042 13.9875 49.7404 13.7676 49.6632 13.6153C49.2434 12.8202 48.4677 12.4717 47.5477 12.4717H46.8358L38.7365 12.4344H38.6996V12.4209Z" fill="#212529"/>
<path d="M50.4795 25.4979L55.6641 16.2471H52.0477L46.9033 25.5249H50.456L50.4795 25.4979Z" fill="#212529"/>
<path d="M57.676 12.5488H54.0327L52.582 15.2422H56.1985L57.676 12.5488Z" fill="#212529"/>
<path d="M72.4238 25.4979L77.6085 16.2471H73.992L68.8477 25.5249H72.4003L72.4238 25.4979Z" fill="#212529"/>
<path d="M79.6194 12.5488H75.976L74.5254 15.2422H78.1419L79.6194 12.5488Z" fill="#212529"/>
<path d="M93.6016 25.4979L98.7728 16.2471H95.1563L90.0254 25.5249H93.5781L93.6016 25.4979Z" fill="#212529"/>
<path d="M100.784 12.5488H97.1411L95.6904 15.2422H99.3069L100.784 12.5488Z" fill="#212529"/>
<path d="M62.7829 25.4979C63.3571 25.4471 63.8138 25.3693 64.1462 25.2678C65.523 24.8313 66.6177 24.0632 67.4068 22.9331L70.4759 17.3637C70.7177 16.9542 70.9225 16.582 71.1005 16.2471H67.2053C67.2187 16.2843 67.2322 16.3249 67.2322 16.3756C67.2322 16.7106 66.6714 17.6851 65.6774 19.6205C64.6701 21.4545 63.7802 22.2259 62.5311 22.2259H58.8239V22.1887L62.0845 16.2471H58.4546L53.374 25.5249H56.9536L62.7829 25.4979Z" fill="#212529"/>
<path d="M71.8359 14.2815C71.8359 14.0007 71.7855 13.7672 71.6814 13.5743C71.2751 12.8164 70.3819 12.4307 69.032 12.4307H60.5902L60.5532 12.4679L59.0254 15.2526H71.5807C71.762 14.8466 71.8359 14.5116 71.8359 14.2815Z" fill="#212529"/>
<path d="M85.5131 25.1396C86.7488 24.7403 87.83 23.8944 88.7736 22.5748C89.8045 20.9202 90.3283 19.8544 90.3283 19.3807V19.0998L90.2511 18.7412C89.9455 18.0881 89.1933 17.7532 87.9845 17.7532H82.6857C82.8402 17.496 83.0416 16.8565 83.8946 16.2373H79.7945C79.0289 17.4554 78.4715 18.6634 78.7502 19.4078C78.9786 20.0236 79.9087 20.3585 81.7052 20.3585H86.4298C86.3794 20.6529 86.0738 21.13 85.4123 21.6173C84.8381 22.0402 84.2774 22.1688 83.8207 22.1688H77.491C77.4003 22.1688 76.9806 22.1688 76.5373 22.1688L74.667 25.505H83.8475C84.3042 25.4847 84.865 25.3697 85.5131 25.1396Z" fill="#212529"/>
<path d="M94.3411 12.4609H85.7448C83.5286 12.4609 81.8228 13.2967 80.6375 14.9513C80.5602 15.0528 80.5098 15.1441 80.4326 15.2457H92.8233L94.3411 12.4609Z" fill="#212529"/>
<path d="M122.52 14.2034C122.507 14.0884 122.47 13.8448 122.443 13.7297C122.289 12.9346 121.322 12.5488 119.602 12.5488H103.672L102.168 15.2557H122.265C122.446 14.8091 122.547 14.4606 122.52 14.2034Z" fill="#212529"/>
<path d="M121.745 16.2441H117.974C117.988 16.2814 118.011 16.322 118.011 16.3727V16.5284C117.847 16.9378 116.05 19.9932 113.045 25.5119H116.611L121.745 16.2441Z" fill="#212529"/>
<path d="M105.227 16.2441H101.638L96.5303 25.522H100.046L105.227 16.2441Z" fill="#212529"/>
<path d="M113.609 16.2441H110.006L104.898 25.522H108.428L113.609 16.2441Z" fill="#212529"/>
<path d="M133.31 16.4132V16.5282C133.31 16.8734 132.826 18.0035 132.01 19.5295C131.208 21.1976 130.049 22.2127 128.763 22.2127H126.382C125.721 22.2127 125.402 21.9961 125.402 21.5461V21.4683C125.402 21.0961 126.167 19.8273 126.752 18.7343C127.158 17.9899 128.115 16.7076 128.827 16.244H124.623C124.126 17.1034 123.437 18.3215 122.571 19.9254C121.386 21.8743 120.788 23.1838 120.788 23.8402C120.788 24.006 120.825 24.2259 120.902 24.4696C121.221 25.0989 121.819 25.444 122.712 25.5219H128.454C129.512 25.4711 130.338 25.3155 130.926 25.0211C131.678 24.7267 132.48 24.0974 133.347 23.1229C133.689 22.6492 134.697 20.8254 136.379 17.6685C136.698 17.1305 136.953 16.6534 137.168 16.2305H133.246C133.283 16.2981 133.31 16.3489 133.31 16.4132Z" fill="#212529"/>
<path d="M137.866 13.9227C137.587 12.9482 136.785 12.4609 135.485 12.4609H130.227C128.471 12.4609 126.866 13.3068 125.425 14.9885C125.375 15.0528 125.311 15.1441 125.247 15.2457H137.638C137.816 14.8092 137.906 14.4505 137.906 14.1933L137.866 13.9227Z" fill="#212529"/>
<path d="M19.6236 25.4979C20.7048 23.444 21.3059 22.368 21.4066 22.2631H26.7793L25.0735 25.4979H28.5489C28.6496 25.3828 30.1137 22.7504 32.9411 17.6073C33.2332 17.1065 33.4884 16.6565 33.6932 16.2471H29.8518C29.8652 16.2978 29.8786 16.3486 29.8786 16.4129V16.5685C29.8786 16.7478 29.4186 17.5836 28.5153 19.0589H23.1427C23.1427 18.981 24.3515 16.4535 25.1809 16.2471H21.1279L17.5484 22.6996C17.0783 23.5591 16.5678 24.4828 16.0205 25.4979V25.5249H19.5866L19.6236 25.4979Z" fill="#212529"/>
<path d="M34.385 14.3191C34.385 14.1635 34.3481 13.8691 34.3078 13.7304C34.0526 12.8337 33.0486 12.4717 31.6987 12.4717L26.2857 12.5123C25.4966 12.5766 24.7444 12.8067 24.0191 13.2195C23.4449 13.4495 22.6827 14.1297 21.7156 15.2327C21.7156 15.2327 21.7021 15.2462 21.7021 15.2598H34.1567C34.2943 14.8605 34.385 14.6304 34.385 14.3191Z" fill="#212529"/>
<path d="M5.62787 22.1114H11.1919L9.34509 25.5254H13.1295L14.9629 22.2027C14.9763 22.1757 14.9898 22.152 14.9998 22.1249C15.2785 21.5463 15.3054 21.4956 15.2785 21.2384C15.2282 20.7004 12.2732 20.4805 11.7393 20.4805L11.7662 20.3147C11.7662 20.3147 14.7715 20.3147 15.3558 20.159C15.94 20.0034 16.4504 19.4417 16.934 18.633L18.1831 16.322H17.394H14.2879C14.2879 16.322 14.0965 16.8735 13.7675 17.4115C13.3209 18.1187 12.5821 18.6161 11.0408 18.6804C10.8998 18.6804 10.7722 18.6939 10.6345 18.6939H7.48816C7.48816 18.6026 7.92133 17.8074 8.77424 16.3186C8.83804 16.2036 8.90184 16.0885 8.97908 15.96H5.28537L0 25.5221H3.69371L5.62787 22.1114Z" fill="#212529"/>
<path d="M18.808 15.2556L18.8349 15.2184C19.1035 14.6161 19.2311 14.1525 19.2311 13.8717L19.1941 13.5773C19.1035 13.2051 18.9154 12.9108 18.6602 12.6671C18.1633 12.1934 17.3742 11.96 16.2929 11.96H7.5153L5.69531 15.259H9.41253H18.808V15.2556Z" fill="#212529"/>
<path d="M18.8076 15.2566C18.8076 15.2429 18.8213 15.2291 18.8213 15.2188L18.8076 15.2566Z" fill="#212529"/>
<path d="M15.4092 10.0995H17.256C17.4206 9.82879 19.8786 5.3252 19.8786 5.3252H17.9175C17.9041 5.40302 17.8907 5.50453 17.8403 5.64664L15.4092 10.0995Z" fill="#212529"/>
<path d="M25.6484 4.79744L26.414 3.41016L21.8908 3.42707L21.1387 4.80082C21.8002 4.80082 22.5389 4.81436 23.2273 4.81436C24.5402 4.79744 25.6484 4.79744 25.6484 4.79744Z" fill="#212529"/>
<path d="M30.3861 10.0993L31.3296 8.43122H26.642L27.1524 7.48042H29.7514L30.517 6.12021H27.9314C28.0859 5.82583 28.2639 5.50439 28.3646 5.31152H26.5043C25.9066 6.41458 24.9899 8.0827 23.9053 10.0858H30.3861V10.0993Z" fill="#212529"/>
<path d="M33.4044 10.0589L34.3714 8.35357H37.1216L36.1914 10.0725L38.0618 10.0454L38.9785 8.39079C38.9919 8.37726 38.9919 8.36372 38.9919 8.35357C39.133 8.07273 39.1464 8.04566 39.133 7.91709C39.1061 7.6464 37.642 7.54489 37.3868 7.54489L37.4003 7.45353C37.4003 7.45353 38.8912 7.45353 39.1699 7.37571C39.462 7.29789 39.7172 7.01705 39.9456 6.61778L40.6205 5.29478H38.6964C38.6964 5.29478 38.542 5.74481 38.364 6.01211C38.1491 6.35724 37.7797 6.60086 37.0141 6.64146C36.9503 6.64146 36.8865 6.64146 36.8093 6.64146H35.2546C35.2546 6.60424 35.4695 6.20498 35.8926 5.46058C35.9295 5.39629 35.9564 5.34554 35.9933 5.28125H34.1733L31.5508 10.0149H33.3976V10.0589H33.4044Z" fill="#212529"/>
<path d="M40.9669 4.40113L40.94 4.25902C40.8897 4.07968 40.799 3.92404 40.6714 3.809C40.4296 3.57891 40.0334 3.46387 39.4995 3.46387H35.1577L34.4189 4.81055H40.8628C40.9299 4.63121 40.9669 4.50264 40.9669 4.40113Z" fill="#212529"/>
<path d="M10.4025 10.0723L13.0654 5.31152H11.2051L8.55566 10.0993H10.3891L10.4025 10.0723Z" fill="#212529"/>
<path d="M14.0964 3.41309H12.226L11.4873 4.80037H13.3476L14.0964 3.41309Z" fill="#212529"/>
<path d="M20.0201 4.79744L20.0335 4.7839C20.1477 4.52675 20.198 4.33388 20.198 4.21884L20.1846 4.09026C20.1477 3.93462 20.0704 3.80942 19.9563 3.70453C19.7514 3.51166 19.4224 3.41016 18.9489 3.41016H15.2451L14.4795 4.79744H16.0443H20.0201Z" fill="#212529"/>
<path d="M22.1855 5.31152L19.5361 10.0993H21.3561L21.3696 10.0723L24.0324 5.31152H22.1855Z" fill="#212529"/>
<path d="M13.4352 10.0993L13.4621 10.0723L16.1249 5.31152H14.2646L11.6152 10.0993H13.4352Z" fill="#212529"/>
<path d="M34.0795 3.41309H27.5315C27.5047 3.44015 27.2528 3.90033 26.7559 4.80037H33.3139L34.0795 3.41309Z" fill="#212529"/>
<path d="M160.217 5.45361C161.573 5.45361 162.675 4.34379 162.675 2.97681C162.675 1.60983 161.573 0.5 160.217 0.5C158.86 0.5 157.759 1.60983 157.759 2.97681C157.759 4.34379 158.86 5.45361 160.217 5.45361Z" fill="#212529"/>
<path d="M159.326 20.0706C159.236 20.0063 159.148 19.942 159.048 19.8912C159.021 19.8777 158.984 19.854 158.947 19.8405L157.533 19.0453L151.737 15.6719V15.6854L151.71 15.6719L142.631 31.5207L142.211 32.2381C142.161 32.3159 142.11 32.4038 142.056 32.4952C142.043 32.5223 142.03 32.546 142.02 32.5866L142.006 32.6001C141.892 32.8573 141.828 33.1516 141.828 33.4595C141.828 34.5897 142.668 35.4999 143.712 35.4999C144.323 35.4999 144.87 35.1784 145.216 34.6776L145.737 33.7674L148.144 29.5582L158.054 26.8886C158.168 26.8615 158.282 26.8378 158.396 26.7972L158.497 26.7701V26.7566C159.86 26.2558 160.841 24.8449 160.841 23.2004C160.841 22.4696 160.649 21.7895 160.32 21.2109C160.075 20.7507 159.733 20.3649 159.326 20.0706ZM154.014 23.982L150.854 24.8279L153.121 20.8759L154.279 21.5424L157.043 23.1463L154.014 23.982Z" fill="#212529"/>
<path d="M142.833 18.4133L143.138 19.2727L143.991 19.1306L144.22 19.0934L148.383 18.3862L146.6 17.3339L150.002 11.3923L154.804 10.367V10.3535C155.579 10.1471 156.167 9.39256 156.167 8.47899C156.167 7.41315 155.378 6.55371 154.397 6.55371C154.243 6.55371 154.092 6.58078 153.951 6.618L147.571 7.97821L147.557 7.96468L143.303 15.3816L141.342 14.2277L142.742 18.1933L142.833 18.4133Z" fill="#212529"/>
<path d="M141.153 14.332L138.48 18.927L142.53 18.2333L141.153 14.332Z" fill="#212529"/>
<path d="M145.7 23.2512L148.4 18.6055L144.3 19.3126L145.7 23.2512Z" fill="#212529"/>
<path d="M144.068 19.3508L143.216 19.4929L142.987 19.5301L142.91 19.3135L142.604 18.4541L138.478 19.1613L145.469 23.2791L144.068 19.3508Z" fill="#212529"/>
<path d="M166.19 6.13379C165.515 6.13379 164.931 6.50599 164.626 7.05752C164.575 7.14887 164.525 7.25038 164.498 7.35189L164.32 7.75116L163.007 10.7152H159.135L157.201 14.2308V14.2443H165.364V14.2172C165.364 14.2172 165.364 14.2037 165.378 14.2172C165.378 14.2172 165.378 14.2172 165.391 14.2172L167.453 9.55801L167.923 8.49217C167.973 8.32637 168 8.14704 168 7.96771C167.987 6.95601 167.184 6.13379 166.19 6.13379Z" fill="#212529"/>
</svg>
