<svg width="20" height="20" viewBox="0 0 20 20" fill="none" xmlns="http://www.w3.org/2000/svg">
<path d="M1.94991e-06 14.2002V5.79981C1.82743e-06 4.97632 -0.00102066 4.29843 0.0439473 3.74805C0.0898763 3.18599 0.188273 2.6689 0.435549 2.1836L0.589846 1.90821C0.974136 1.2817 1.52513 0.771098 2.1836 0.435549L2.36719 0.349611C2.79892 0.164421 3.2562 0.0841392 3.74805 0.0439473C4.29843 -0.00102052 4.97632 1.82615e-06 5.79981 1.94923e-06H7L7.10254 0.00488476C7.60667 0.0562159 8 0.482325 8 1C8 1.51768 7.60667 1.94379 7.10254 1.99512L7 2H5.79981C4.94342 2 4.36117 2.00035 3.91113 2.03711C3.58253 2.06396 3.37418 2.10762 3.22461 2.16113L3.0918 2.21778C2.76256 2.38555 2.48707 2.64085 2.29492 2.9541L2.21778 3.0918C2.13809 3.2482 2.07293 3.47272 2.03711 3.91113C2.00035 4.36117 2 4.94342 2 5.79981V14.2002C2 15.0566 2.00035 15.6388 2.03711 16.0889C2.07293 16.5273 2.13809 16.7518 2.21778 16.9082L2.29492 17.0459C2.48707 17.3592 2.76256 17.6145 3.0918 17.7822L3.22461 17.8389C3.37418 17.8924 3.58253 17.936 3.91113 17.9629C4.36117 17.9997 4.94342 18 5.79981 18H7L7.10254 18.0049C7.60667 18.0562 8 18.4823 8 19C8 19.5177 7.60667 19.9438 7.10254 19.9951L7 20H5.79981C4.97632 20 4.29843 20.001 3.74805 19.9561C3.2562 19.9159 2.79892 19.8356 2.36719 19.6504L2.1836 19.5645C1.52513 19.2289 0.974136 18.7183 0.589846 18.0918L0.435549 17.8164C0.188273 17.3311 0.0898761 16.814 0.0439473 16.252C-0.0010206 15.7016 1.82773e-06 15.0237 1.94991e-06 14.2002ZM13.293 4.29297C13.6591 3.92685 14.2381 3.90426 14.6309 4.22461L14.707 4.29297L19.707 9.29297C20.0976 9.68349 20.0976 10.3165 19.707 10.707L14.707 15.707C14.3165 16.0976 13.6835 16.0976 13.293 15.707C12.9024 15.3165 12.9024 14.6835 13.293 14.293L16.5859 11H7C6.44772 11 6 10.5523 6 10C6 9.44772 6.44772 9 7 9H16.5859L13.293 5.70703L13.2246 5.63086C12.9043 5.23809 12.9269 4.65909 13.293 4.29297Z" fill="#2569B3"/>
</svg>
